<?xml version="1.0" encoding="utf-8"?>
<!-- Generator: Adobe Illustrator 22.0.2, SVG Export Plug-In . SVG Version: 6.00 Build 0)  -->
<svg version="1.1" xmlns="http://www.w3.org/2000/svg" xmlns:xlink="http://www.w3.org/1999/xlink" x="0px" y="0px"
	 viewBox="0 0 588 672" style="enable-background:new 0 0 588 672;" xml:space="preserve">
<style type="text/css">
	.st0{fill:none;}
	.st1{fill:#231815;}
	.st2{fill:url(#SVGID_1_);stroke:#231F20;stroke-width:15;stroke-miterlimit:10;}
	.st3{font-family:'Helvetica-Bold';}
	.st4{font-size:65px;}
	.st5{opacity:0.4;fill:url(#SVGID_2_);enable-background:new    ;}
	.st6{fill:#2D2424;}
	.st7{fill:#43734A;}
	.st8{fill:#5C8961;}
	.st9{fill:#84B287;}
	.st10{fill:#FFFFFF;}
</style>
<pattern  y="672" width="48" height="48" patternUnits="userSpaceOnUse" id="_x36__dpi_10_x25_" viewBox="1.2 -49.2 48 48" style="overflow:visible;">
	<g>
		<rect x="1.2" y="-49.2" class="st0" width="48" height="48"/>
		<g>
			<rect x="1.2" y="-49.2" class="st0" width="48" height="48"/>
			<g>
				<circle class="st1" cx="25.2" cy="-49.2" r="1.2"/>
				<circle class="st1" cx="49.2" cy="-49.2" r="1.2"/>
				<circle class="st1" cx="25.2" cy="-25.2" r="1.2"/>
				<circle class="st1" cx="49.2" cy="-25.2" r="1.2"/>
				<circle class="st1" cx="37.2" cy="-37.2" r="1.2"/>
				<circle class="st1" cx="13.2" cy="-37.2" r="1.2"/>
				<circle class="st1" cx="37.2" cy="-13.2" r="1.2"/>
				<circle class="st1" cx="13.2" cy="-13.2" r="1.2"/>
			</g>
			<g>
				<circle class="st1" cx="1.2" cy="-49.2" r="1.2"/>
				<ellipse class="st1" cx="1.2" cy="-25.2" rx="1.2" ry="1.2"/>
			</g>
			<g>
				<circle class="st1" cx="25.2" cy="-1.2" r="1.2"/>
				<circle class="st1" cx="49.2" cy="-1.2" r="1.2"/>
			</g>
			<g>
				<ellipse class="st1" cx="1.2" cy="-1.2" rx="1.2" ry="1.2"/>
			</g>
		</g>
	</g>
</pattern>
<g id="图层_1">
	<g id="图层_3">
		<pattern  id="SVGID_1_" xlink:href="#_x36__dpi_10_x25_" patternTransform="matrix(1 0 0 -1 -1176.2 -13041.9336)">
		</pattern>
		<polygon class="st2" points="295.4,658 15.2,497.4 14.2,174.4 293.4,12 573.6,172.6 574.6,495.6 		"/>
	</g>
	<g id="图层_6">
		<text transform="matrix(1 0 0 1 212.2434 502.2925)" class="st3 st4">ngstk</text>
	</g>
	<g id="图层_2_1_">
		<g>
			
				<radialGradient id="SVGID_2_" cx="-1258.8652" cy="-18804.0996" r="119.9097" gradientTransform="matrix(1.7033 0 0 -0.1319 2443.2751 -1945.1608)" gradientUnits="userSpaceOnUse">
				<stop  offset="0" style="stop-color:#000000"/>
				<stop  offset="4.301205e-02" style="stop-color:#131313"/>
				<stop  offset="0.1924" style="stop-color:#515151"/>
				<stop  offset="0.3406" style="stop-color:#868686"/>
				<stop  offset="0.484" style="stop-color:#B1B1B1"/>
				<stop  offset="0.6218" style="stop-color:#D3D3D3"/>
				<stop  offset="0.7523" style="stop-color:#EBEBEB"/>
				<stop  offset="0.8726" style="stop-color:#FAFAFA"/>
				<stop  offset="0.9731" style="stop-color:#FFFFFF"/>
			</radialGradient>
			<path class="st5" d="M503.5,535.1c0,8.7-91.5,15.8-204.4,15.8s-204.5-7.1-204.5-15.8s91.5-15.8,204.5-15.8
				C411.9,519.3,503.5,526.4,503.5,535.1z"/>
		</g>
	</g>
	<g id="Layer_1">
		<path class="st6" d="M418.6,164.4c-66.4-66.4-174.6-66.4-241,0s-66.4,174.6,0,241s174.6,66.4,241,0S485,230.7,418.6,164.4z"/>
		<path class="st7" d="M303.6,435.7c86.5,0,157-70.6,157-157.1s-70.6-157.1-157-157.1c-86.5,0-157.1,70.6-157.1,157.1
			S217.1,435.7,303.6,435.7z"/>
		<path class="st8" d="M295.1,147.1c86.7,0,157.1,70.3,157.1,157.1c0,11.6-1.2,22.8-3.6,33.7h0.6c7.4-18.3,11.5-38.2,11.5-59.2
			c0-86.7-70.3-157.1-157-157.1c-74.1,0-136.2,51.3-152.7,120.3C175,186.1,230.5,147.1,295.1,147.1z"/>
		<path class="st9" d="M158.2,219.2c25.6-53.7,80.5-90.9,144-90.9c80.5,0,147,59.6,157.9,137c-6.8-80.5-74.2-143.7-156.5-143.7
			C237.9,121.6,181.6,161.9,158.2,219.2z"/>
	</g>
	<g id="图层_4">
	</g>
</g>
<g id="图层_2">
	<g>
		<path class="st10" d="M296,309.4h-9.9c-0.7-2.8-1.8-5.3-3.3-7.9l7-7c0.1-0.1,0.2-0.3,0.2-0.6s-0.1-0.4-0.2-0.6l-10.2-10.2
			c-0.3-0.3-0.8-0.3-1.1,0l-7,7c-2.5-1.5-5.2-2.6-7.9-3.3v-10c0-0.4-0.4-0.8-0.8-0.8h-14.6c-0.4,0-0.8,0.4-0.8,0.8v10
			c-2.7,0.7-5.4,1.9-7.8,3.3l-6.9-7c-0.1-0.1-0.3-0.2-0.6-0.2c0,0,0,0,0,0c-0.2,0-0.4,0.1-0.6,0.2l-10.2,10.2
			c-0.1,0.1-0.2,0.3-0.2,0.6s0.1,0.4,0.2,0.6l7,7c-1.5,2.5-2.6,5.1-3.3,7.9H215c-0.4,0-0.8,0.4-0.8,0.8v14.6c0,0.4,0.4,0.8,0.8,0.8
			h9.9c0.8,2.8,1.9,5.5,3.3,7.9l-7,7c-0.1,0.1-0.2,0.3-0.2,0.6s0.1,0.4,0.2,0.6l10.2,10.2c0.1,0.1,0.4,0.2,0.6,0.2
			c0.2,0,0.4-0.1,0.6-0.2l6.9-7c2.4,1.4,5.1,2.5,7.8,3.3v9.9c0,0.4,0.4,0.8,0.8,0.8h14.6c0.4,0,0.8-0.4,0.8-0.8V348
			c2.8-0.7,5.4-1.8,7.9-3.3l7,7c0.3,0.3,0.8,0.3,1.1,0l10.3-10.2c0.1-0.1,0.2-0.3,0.2-0.6c0-0.2-0.1-0.4-0.2-0.6l-7-7
			c1.4-2.4,2.5-5.1,3.3-7.8h9.9c0.4,0,0.8-0.4,0.8-0.8v-14.6C296.8,309.7,296.4,309.4,296,309.4z M270.3,320
			c-1,6.2-6.1,11.3-12.3,12.3c-5.3,0.9-10.6-1.1-14-5.1c-2.9-3.4-4.1-7.9-3.4-12.3c1-6.2,6.1-11.3,12.3-12.3
			c0.8-0.1,1.7-0.2,2.6-0.2c4.4,0,8.6,1.9,11.5,5.3C269.8,311.1,271.1,315.6,270.3,320z"/>
		<path class="st10" d="M258.1,304.6c-9.1-1.7-17,6.2-15.3,15.3c1,5.1,5.1,9.2,10.2,10.2c9.1,1.7,17-6.2,15.3-15.3
			C267.3,309.7,263.2,305.6,258.1,304.6z M263.7,319.3c-0.7,3.1-3.2,5.6-6.3,6.3c-6.1,1.4-11.5-4-10.2-10.2c0.7-3.1,3.2-5.6,6.3-6.3
			C259.7,307.8,265.1,313.1,263.7,319.3z"/>
		<path class="st10" d="M348.9,292.2l-2.5-9.5c-0.1-0.4-0.5-0.7-1-0.6l-6.3,1.7c-0.9-1.6-2-3-3.3-4.3l3.3-5.7
			c0.2-0.4,0.1-0.9-0.3-1.1l-8.5-4.9c-0.4-0.2-0.9-0.1-1.1,0.3l-3.3,5.6c-1.8-0.5-3.6-0.7-5.4-0.7c0,0,0,0,0,0l-1.7-6.3
			c-0.1-0.4-0.5-0.7-1-0.6l-9.5,2.5c-0.4,0.1-0.7,0.5-0.6,1l1.7,6.3c-1.6,0.9-3,2-4.3,3.3l-5.6-3.2c-0.2-0.1-0.4-0.1-0.6-0.1
			c-0.2,0.1-0.4,0.2-0.5,0.4l-4.9,8.5c-0.2,0.4-0.1,0.9,0.3,1.1l5.6,3.3c-0.5,1.8-0.7,3.6-0.7,5.5l-6.3,1.7
			c-0.2,0.1-0.4,0.2-0.5,0.4c-0.1,0.2-0.1,0.4-0.1,0.6l2.5,9.5c0.1,0.4,0.5,0.7,1,0.6l6.3-1.7c0.9,1.6,2.1,3,3.3,4.3l-3.2,5.6
			c-0.1,0.2-0.1,0.4-0.1,0.6c0.1,0.2,0.2,0.4,0.4,0.5l8.5,4.9c0.2,0.1,0.4,0.1,0.6,0.1c0.2-0.1,0.4-0.2,0.5-0.4l3.2-5.6
			c1.8,0.5,3.6,0.7,5.4,0.7l1.7,6.3c0.1,0.2,0.2,0.4,0.4,0.5c0.1,0.1,0.3,0.1,0.4,0.1c0.1,0,0.1,0,0.2,0l9.5-2.5
			c0.2-0.1,0.4-0.2,0.5-0.4c0.1-0.2,0.1-0.4,0.1-0.6l-1.7-6.3c1.6-0.9,3.1-2.1,4.3-3.3l5.7,3.3c0.4,0.2,0.9,0.1,1.1-0.3l4.9-8.5
			c0.1-0.2,0.1-0.4,0.1-0.6c-0.1-0.2-0.2-0.4-0.4-0.5l-5.7-3.3c0.5-1.8,0.7-3.6,0.7-5.4l6.3-1.7c0.2-0.1,0.4-0.2,0.5-0.4
			C348.9,292.6,348.9,292.4,348.9,292.2z M324.8,303.7c-1.4,0.7-2.9,1-4.4,1c-5.3,0-9.5-4-9.9-9.3c-0.3-4,1.9-7.8,5.5-9.6
			c1.4-0.7,2.9-1,4.4-1c5.3,0,9.5,4,9.9,9.3C330.6,298.1,328.4,301.9,324.8,303.7z"/>
		<path class="st10" d="M322.3,286.7c-6-1.3-11.3,3.9-9.9,9.9c0.7,3,3.1,5.5,6.1,6.2c6,1.3,11.3-3.9,9.9-9.9
			C327.7,289.8,325.3,287.4,322.3,286.7z M325.4,295.8c-0.4,2-2,3.6-4,4c-3.6,0.7-6.7-2.4-6-6c0.4-2,2-3.6,4-4
			C323,289,326.1,292.2,325.4,295.8z"/>
	</g>
	<g>
		<path class="st10" d="M353.3,207.5l-8.5-3.6c-0.6-0.2-1.3,0.2-1.6,0.9l-1.6,3.9l-2.8-1.2l1.6-3.7c0.3-0.8-0.1-1.8-1-2.2L305,187.3
			c-0.9-0.4-1.9,0-2.3,0.8l-0.7,1.7c-0.6-0.3-1.4-0.7-2.3-1c-3.2-1.3-8-2.9-13.4-3c-6.3-0.1-11.8,1.8-16.3,5.6
			c-0.3,0.2-0.4,0.6-0.3,0.9c0.1,0.3,0.3,0.6,0.6,0.8l25.9,10.8l-1.6,3.9c-0.3,0.8,0.1,1.8,1,2.2l10.6,4.4l-8.4,20.2
			c-0.1-0.1-0.3-0.1-0.4-0.2c-0.5-0.2-1.1,0.1-1.4,0.8c-7.9,17.8-15.7,35.6-23.6,53.3c-0.3,0.6-0.1,1.4,0.5,1.6
			c5.3,2.2,10.6,4.4,15.8,6.6c0.6,0.2,1.2-0.1,1.5-0.8c7.1-18.1,14.2-36.2,21.3-54.3c0.3-0.7,0.1-1.3-0.4-1.5
			c-0.1,0-0.2-0.1-0.4-0.1l8.4-20.2l10.7,4.5c0.9,0.4,1.9,0,2.2-0.8l1.6-3.9l2.8,1.2l-1.7,4c-0.3,0.7-0.1,1.5,0.5,1.8l8.5,3.6
			c0.6,0.2,1.3-0.2,1.6-0.9l8.3-19.9C354.1,208.5,353.9,207.7,353.3,207.5z M306.7,238.3c-1.6-0.7-3.3-1.4-4.9-2.1l8.4-20.2l4.9,2.1
			L306.7,238.3z"/>
		<path class="st10" d="M363.2,235.3h-13.5c-0.9,0-1.5,1.1-1.5,2.3v1.2c0,1.2,0.6,2.2,1.5,2.2h4.7v19.3l1.6,3.1c0.3,0.5,1,0.5,1.3,0
			l1.6-3.1V241h4.3c0.9,0,1.3-1,1.3-2.2v-1.2C364.5,236.4,364.1,235.3,363.2,235.3z"/>
	</g>
	<g>
		<path class="st10" d="M363.5,323.5c0.2,0.2,0.5,0.4,0.7,0.6l11.7,6.8c0.7,0.4,1.9,0.5,2.6,0.3l12.8-3.4c0.8-0.2,1.9-1,2.3-1.7
			l3.9-6.7c0.6-1.1,0.2-1.7-1.1-1.4l-13.1,3.4c-0.9,0.2-2.1-0.2-2.6-0.9l-5.4-7.3c-0.5-0.7-0.9-2-0.7-2.9l1.2-9
			c0.1-0.9,1-1.9,1.9-2.1l13.3-3.5c1.2-0.3,1.3-1.1,0.2-1.7l-6.9-4c-0.8-0.4-2.1-0.6-2.9-0.4l-12.6,3.3c-0.8,0.2-1.9,1-2.3,1.8
			l-6.8,11.5c-0.2,0.3-0.3,0.7-0.4,1c-19.9,4.7-39.8,9.3-59.7,14c-2.3,0.5-3.7,3.2-3,6c0.8,3.1,1.6,6.2,2.5,9.4
			c0.7,2.8,3.2,4.4,5.5,3.8C324.2,334.8,343.8,329.2,363.5,323.5z"/>
		<path class="st10" d="M332.8,353.2l0-3c0-0.2,0.1-0.3,0.3-0.3l49.6-0.4l0,1.4c0,0.2,0.2,0.4,0.4,0.3c4.1-0.4,8.2-0.9,12.3-1.3
			c0.2,0,0.3-0.2,0.3-0.3l0-5.6c0-0.1-0.1-0.3-0.3-0.3c-4.1-0.4-8.2-0.7-12.4-1.1c-0.2,0-0.4,0.1-0.4,0.3l0,1.2l-49.6,0.4
			c-0.2,0-0.3-0.1-0.3-0.3l0-2.9c0-1.6-1.4-2.9-3-2.9l-33.8,0.3c-1.6,0-2.9,1.3-2.9,2.9l0.1,11.8c0,1.6,1.3,2.8,2.9,2.8l34-0.3
			C331.6,356,332.8,354.7,332.8,353.2z M302.1,345.1c-1,0-1.8-0.8-1.9-1.8c0-1,0.8-1.8,1.8-1.9l21.3-0.2c1,0,1.8,0.8,1.9,1.8
			c0,1-0.8,1.8-1.8,1.9L302.1,345.1z M302.2,353.6c-1,0-1.8-0.8-1.9-1.8c0-1,0.8-1.8,1.8-1.9l21.3-0.2c1,0,1.8,0.8,1.9,1.8
			c0,1-0.8,1.8-1.8,1.9L302.2,353.6z"/>
	</g>
</g>
</svg>
